<?xml version="1.0" encoding="UTF-8" standalone="no"?>
<!DOCTYPE svg PUBLIC "-//W3C//DTD SVG 1.1//EN" "http://www.w3.org/Graphics/SVG/1.1/DTD/svg11.dtd">
<svg xmlns="http://www.w3.org/2000/svg" version="1.1" viewBox="0.00 0.00 48.00 48.00">
<path fill="#000000" d="
  M 33.94 14.00
  A 9.94 9.94 0.0 0 1 24.00 23.94
  A 9.94 9.94 0.0 0 1 14.06 14.00
  A 9.94 9.94 0.0 0 1 24.00 4.06
  A 9.94 9.94 0.0 0 1 33.94 14.00
  Z
  M 30.93 14.00
  A 6.94 6.94 0.0 0 0 23.99 7.06
  A 6.94 6.94 0.0 0 0 17.05 14.00
  A 6.94 6.94 0.0 0 0 23.99 20.94
  A 6.94 6.94 0.0 0 0 30.93 14.00
  Z"
/>
<path fill="#000000" d="
  M 36.25 28.02
  A 3.80 3.80 0.0 0 1 40.05 31.81
  L 40.05 32.51
  A 14.17 11.38 -0.1 0 1 25.90 43.92
  L 22.10 43.92
  A 14.17 11.38 -0.1 0 1 7.91 32.57
  L 7.91 31.87
  A 3.80 3.80 0.0 0 1 11.71 28.06
  L 36.25 28.02
  Z
  M 36.30 31.01
  L 11.70 31.01
  A 0.84 0.84 0.0 0 0 10.86 31.85
  L 10.86 32.71
  A 11.78 8.24 0.0 0 0 22.64 40.95
  L 25.36 40.95
  A 11.78 8.24 0.0 0 0 37.14 32.71
  L 37.14 31.85
  A 0.84 0.84 0.0 0 0 36.30 31.01
  Z"
/>
</svg>
