<svg xmlns="http://www.w3.org/2000/svg" xmlns:xlink="http://www.w3.org/1999/xlink" width="1080" zoomAndPan="magnify" viewBox="0 0 810 809.999993" height="1080" preserveAspectRatio="xMidYMid meet" version="1.0"><defs><g/><clipPath id="2ffecba418"><path d="M 111 25.320312 L 699 25.320312 L 699 784.320312 L 111 784.320312 Z M 111 25.320312 " clip-rule="nonzero"/></clipPath><clipPath id="1bcb3b0d73"><path d="M 264 437 L 547 437 L 547 575.363281 L 264 575.363281 Z M 264 437 " clip-rule="nonzero"/></clipPath></defs><g clip-path="url(#2ffecba418)"><path fill="#e497b1" d="M 663.832031 748.550781 C 659.429688 753.371094 653.414062 756.023438 646.890625 756.023438 L 163.0625 756.023438 C 156.535156 756.023438 150.519531 753.371094 146.121094 748.550781 C 141.71875 743.734375 139.621094 737.5 140.214844 731 L 184.9375 240.078125 C 186.023438 228.183594 195.847656 219.214844 207.789062 219.214844 L 264.09375 219.214844 L 264.09375 286.621094 C 264.09375 294.535156 270.507812 300.945312 278.417969 300.945312 C 286.328125 300.945312 292.742188 294.535156 292.742188 286.621094 L 292.742188 219.214844 L 517.207031 219.214844 L 517.207031 286.621094 C 517.207031 294.535156 523.617188 300.945312 531.53125 300.945312 C 539.441406 300.945312 545.859375 294.535156 545.859375 286.621094 L 545.859375 219.214844 L 602.160156 219.214844 C 614.101562 219.214844 623.925781 228.179688 625.011719 240.078125 L 669.738281 731 C 670.328125 737.5 668.230469 743.734375 663.832031 748.550781 Z M 292.742188 166.203125 C 292.742188 104.320312 343.089844 53.96875 404.976562 53.96875 C 466.863281 53.96875 517.207031 104.320312 517.207031 166.203125 L 517.207031 190.566406 L 292.742188 190.566406 Z M 698.269531 728.402344 L 653.542969 237.476562 C 652.371094 224.625 646.476562 212.753906 636.945312 204.054688 C 627.421875 195.355469 615.0625 190.566406 602.160156 190.566406 L 545.859375 190.566406 L 545.859375 166.203125 C 545.859375 128.574219 531.203125 93.191406 504.59375 66.582031 C 477.984375 39.976562 442.605469 25.320312 404.976562 25.320312 C 367.34375 25.320312 331.964844 39.976562 305.355469 66.582031 C 278.746094 93.191406 264.09375 128.574219 264.09375 166.203125 L 264.09375 190.566406 L 207.789062 190.566406 C 194.882812 190.566406 182.527344 195.355469 173 204.054688 C 163.472656 212.753906 157.578125 224.625 156.40625 237.476562 L 111.683594 728.402344 C 110.371094 742.804688 115.210938 757.1875 124.960938 767.867188 C 134.710938 778.550781 148.601562 784.671875 163.0625 784.671875 L 646.890625 784.671875 C 661.351562 784.671875 675.238281 778.546875 684.988281 767.867188 C 694.742188 757.1875 699.582031 742.804688 698.269531 728.402344 " fill-opacity="1" fill-rule="nonzero"/></g><g clip-path="url(#1bcb3b0d73)"><path fill="#e497b1" d="M 420.472656 575.121094 C 439.359375 573.4375 456.089844 558.378906 456.089844 539.4375 C 456.089844 525.148438 454.59375 510.871094 454.59375 496.667969 C 454.597656 487.007812 453.265625 477.539062 450.59375 468.253906 C 449.148438 463.3125 447.679688 455.757812 444.8125 451.457031 C 438.292969 441.675781 425.199219 436.65625 411.734375 437.332031 C 398.945312 437.960938 386.496094 443.699219 380.332031 451.914062 C 376.519531 457.007812 375.84375 461.59375 375.226562 467.699219 C 374.277344 476.164062 373.757812 484.65625 373.671875 493.171875 C 373.671875 509.621094 372.683594 526.433594 375.84375 542.566406 C 377.496094 550.792969 379.527344 560.117188 385.625 566.246094 C 387.796875 568.417969 392.460938 570.917969 398.382812 572.339844 C 405.636719 573.882812 412.972656 574.808594 420.386719 575.121094 Z M 326.621094 499.398438 L 294.601562 499.398438 L 294.707031 499.203125 C 297.707031 493.996094 297.640625 494.148438 300.761719 489.128906 C 305.6875 481.140625 310.160156 472.910156 314.179688 464.429688 C 314.464844 463.726562 314.683594 463 314.828125 462.253906 C 314.976562 461.507812 315.054688 460.753906 315.058594 459.992188 C 315.0625 459.230469 314.996094 458.476562 314.859375 457.730469 C 314.722656 456.980469 314.515625 456.25 314.242188 455.542969 C 313.964844 454.832031 313.625 454.15625 313.222656 453.511719 C 312.820312 452.867188 312.359375 452.265625 311.84375 451.707031 C 311.328125 451.148438 310.761719 450.644531 310.148438 450.191406 C 309.539062 449.742188 308.886719 449.351562 308.203125 449.023438 C 307.515625 448.695312 306.804688 448.433594 306.070312 448.238281 C 305.332031 448.042969 304.585938 447.921875 303.828125 447.867188 C 303.070312 447.8125 302.3125 447.832031 301.554688 447.921875 C 300.800781 448.011719 300.0625 448.171875 299.335938 448.402344 C 298.609375 448.632812 297.914062 448.929688 297.246094 449.289062 C 296.574219 449.652344 295.945312 450.074219 295.355469 450.554688 C 294.765625 451.035156 294.226562 451.566406 293.738281 452.148438 C 293.25 452.734375 292.820312 453.355469 292.449219 454.019531 C 288.792969 461.695312 284.726562 469.152344 280.257812 476.382812 C 276.921875 481.816406 276.996094 481.597656 273.792969 487.171875 C 271.757812 490.492188 269.945312 493.929688 268.359375 497.484375 C 267.988281 498.289062 267.726562 499.15625 267.273438 499.929688 C 263.109375 507.121094 264.4375 512.242188 266.078125 515.5 C 267.96875 519.128906 273.195312 523.53125 282.972656 523.53125 L 326.761719 523.53125 C 326.863281 533.515625 326.980469 543.511719 326.980469 553.464844 C 326.957031 554.273438 327.011719 555.074219 327.148438 555.871094 C 327.285156 556.667969 327.5 557.441406 327.792969 558.195312 C 328.085938 558.949219 328.449219 559.667969 328.886719 560.347656 C 329.320312 561.027344 329.820312 561.65625 330.382812 562.234375 C 330.945312 562.816406 331.5625 563.332031 332.226562 563.789062 C 332.894531 564.246094 333.601562 564.632812 334.34375 564.945312 C 335.089844 565.261719 335.855469 565.5 336.648438 565.660156 C 337.441406 565.820312 338.238281 565.902344 339.046875 565.902344 C 339.855469 565.902344 340.65625 565.820312 341.445312 565.660156 C 342.238281 565.5 343.007812 565.261719 343.75 564.945312 C 344.496094 564.632812 345.199219 564.246094 345.867188 563.789062 C 346.535156 563.332031 347.148438 562.816406 347.710938 562.234375 C 348.273438 561.65625 348.773438 561.027344 349.210938 560.347656 C 349.644531 559.667969 350.007812 558.949219 350.300781 558.195312 C 350.59375 557.441406 350.808594 556.667969 350.945312 555.871094 C 351.082031 555.074219 351.136719 554.273438 351.113281 553.464844 C 351.113281 521.605469 349.886719 489.476562 351.875 457.671875 C 351.945312 456.867188 351.933594 456.066406 351.84375 455.265625 C 351.753906 454.464844 351.585938 453.683594 351.339844 452.917969 C 351.09375 452.148438 350.773438 451.414062 350.378906 450.710938 C 349.984375 450.007812 349.523438 449.351562 349 448.742188 C 348.472656 448.132812 347.894531 447.578125 347.257812 447.085938 C 346.621094 446.589844 345.941406 446.164062 345.222656 445.804688 C 344.5 445.449219 343.75 445.164062 342.972656 444.957031 C 342.195312 444.746094 341.402344 444.617188 340.597656 444.566406 C 339.796875 444.519531 338.992188 444.546875 338.195312 444.660156 C 337.398438 444.769531 336.617188 444.957031 335.859375 445.222656 C 335.097656 445.488281 334.371094 445.828125 333.679688 446.238281 C 332.988281 446.652344 332.34375 447.128906 331.746094 447.667969 C 331.148438 448.210938 330.609375 448.804688 330.132812 449.453125 C 329.65625 450.101562 329.246094 450.789062 328.90625 451.519531 C 328.566406 452.25 328.300781 453.007812 328.113281 453.789062 C 327.925781 454.574219 327.816406 455.367188 327.785156 456.171875 C 326.882812 470.515625 326.632812 484.945312 326.621094 499.398438 Z M 521.472656 497.550781 L 489.429688 497.550781 L 489.527344 497.363281 C 492.523438 492.160156 492.449219 492.3125 495.566406 487.28125 C 500.5 479.316406 504.976562 471.101562 509 462.636719 C 509.398438 461.917969 509.71875 461.164062 509.964844 460.378906 C 510.210938 459.59375 510.375 458.792969 510.457031 457.972656 C 510.539062 457.152344 510.535156 456.335938 510.449219 455.515625 C 510.363281 454.699219 510.195312 453.898438 509.945312 453.113281 C 509.695312 452.328125 509.371094 451.578125 508.964844 450.859375 C 508.5625 450.144531 508.089844 449.472656 507.550781 448.851562 C 507.011719 448.230469 506.414062 447.671875 505.757812 447.171875 C 505.105469 446.675781 504.40625 446.246094 503.664062 445.890625 C 502.921875 445.535156 502.152344 445.257812 501.351562 445.058594 C 500.554688 444.863281 499.742188 444.746094 498.921875 444.714844 C 498.097656 444.683594 497.28125 444.734375 496.46875 444.867188 C 495.65625 445.003906 494.867188 445.21875 494.097656 445.515625 C 493.332031 445.808594 492.601562 446.179688 491.910156 446.625 C 491.21875 447.070312 490.578125 447.582031 489.988281 448.160156 C 489.402344 448.734375 488.878906 449.363281 488.421875 450.046875 C 487.960938 450.730469 487.578125 451.453125 487.265625 452.214844 C 483.628906 459.878906 479.578125 467.320312 475.117188 474.535156 C 471.769531 479.96875 471.859375 479.75 468.597656 485.335938 C 466.566406 488.65625 464.753906 492.09375 463.164062 495.648438 C 462.796875 496.441406 462.546875 497.320312 462.078125 498.09375 C 457.917969 505.277344 459.230469 510.4375 460.871094 513.621094 C 462.761719 517.28125 467.96875 521.695312 477.738281 521.695312 L 521.558594 521.695312 C 521.65625 531.679688 521.777344 541.664062 521.777344 551.628906 C 521.753906 552.4375 521.808594 553.238281 521.945312 554.035156 C 522.082031 554.832031 522.296875 555.605469 522.589844 556.359375 C 522.882812 557.113281 523.246094 557.828125 523.683594 558.507812 C 524.117188 559.191406 524.617188 559.820312 525.179688 560.398438 C 525.742188 560.980469 526.359375 561.496094 527.023438 561.953125 C 527.691406 562.410156 528.394531 562.796875 529.140625 563.109375 C 529.882812 563.425781 530.652344 563.664062 531.445312 563.824219 C 532.234375 563.984375 533.035156 564.0625 533.84375 564.0625 C 534.652344 564.0625 535.449219 563.984375 536.242188 563.824219 C 537.035156 563.664062 537.800781 563.425781 538.546875 563.109375 C 539.289062 562.796875 539.996094 562.410156 540.664062 561.953125 C 541.328125 561.496094 541.945312 560.980469 542.507812 560.398438 C 543.070312 559.820312 543.570312 559.191406 544.003906 558.507812 C 544.441406 557.828125 544.804688 557.113281 545.097656 556.359375 C 545.390625 555.605469 545.605469 554.832031 545.742188 554.035156 C 545.878906 553.238281 545.933594 552.4375 545.910156 551.628906 C 545.910156 519.769531 544.683594 487.628906 546.671875 455.835938 C 546.699219 455.054688 546.65625 454.28125 546.535156 453.507812 C 546.414062 452.738281 546.222656 451.984375 545.957031 451.25 C 545.6875 450.519531 545.355469 449.816406 544.953125 449.148438 C 544.550781 448.480469 544.085938 447.855469 543.5625 447.277344 C 543.042969 446.695312 542.46875 446.175781 541.84375 445.707031 C 541.21875 445.238281 540.554688 444.835938 539.851562 444.496094 C 539.148438 444.15625 538.417969 443.890625 537.664062 443.691406 C 536.910156 443.492188 536.140625 443.371094 535.363281 443.320312 C 534.585938 443.273438 533.808594 443.300781 533.035156 443.402344 C 532.261719 443.503906 531.503906 443.679688 530.761719 443.925781 C 530.023438 444.175781 529.316406 444.492188 528.636719 444.878906 C 527.957031 445.265625 527.324219 445.710938 526.730469 446.222656 C 526.140625 446.730469 525.601562 447.292969 525.121094 447.90625 C 524.636719 448.519531 524.21875 449.171875 523.863281 449.867188 C 523.507812 450.5625 523.222656 451.285156 523.003906 452.035156 C 522.789062 452.785156 522.648438 453.546875 522.582031 454.324219 C 521.679688 468.679688 521.417969 483.109375 521.40625 497.550781 Z M 419.210938 550.976562 L 402.03125 548.097656 C 401.527344 547.023438 401.164062 545.898438 400.945312 544.730469 C 400.371094 542.414062 399.988281 540.023438 399.542969 537.796875 C 396.621094 523.226562 397.785156 508.003906 397.785156 493.136719 C 397.878906 485.4375 398.363281 477.761719 399.238281 470.113281 C 399.382812 468.734375 398.773438 467.539062 399.640625 466.398438 C 402.164062 463.027344 407.683594 461.691406 412.929688 461.429688 C 417.515625 461.203125 422.484375 461.496094 424.722656 464.84375 C 426.425781 467.40625 426.566406 472.125 427.425781 475.066406 C 429.445312 482.125 430.449219 489.328125 430.4375 496.667969 C 430.4375 510.871094 431.9375 525.148438 431.9375 539.4375 C 431.9375 545.882812 425.621094 550.097656 419.199219 550.976562 Z M 419.210938 550.976562 " fill-opacity="1" fill-rule="evenodd"/></g><g fill="#e497b1" fill-opacity="1"><g transform="translate(167.376, 722.797496)"><g><path d="M 15.796875 -14.875 L 15.796875 -1.453125 C 15.796875 0.671875 15.097656 2.363281 13.703125 3.625 C 12.304688 4.882812 10.429688 5.515625 8.078125 5.515625 C 5.878906 5.515625 3.820312 4.859375 1.90625 3.546875 L 3.265625 1.234375 C 4.722656 2.316406 6.28125 2.859375 7.9375 2.859375 C 9.351562 2.859375 10.484375 2.472656 11.328125 1.703125 C 12.179688 0.941406 12.609375 -0.0820312 12.609375 -1.375 L 12.609375 -3.25 C 11.566406 -1.570312 9.925781 -0.734375 7.6875 -0.734375 C 5.675781 -0.734375 4.054688 -1.394531 2.828125 -2.71875 C 1.597656 -4.039062 0.984375 -5.773438 0.984375 -7.921875 C 0.984375 -10.023438 1.585938 -11.722656 2.796875 -13.015625 C 4.003906 -14.316406 5.597656 -14.972656 7.578125 -14.984375 C 9.847656 -15.003906 11.523438 -14.164062 12.609375 -12.46875 L 12.609375 -14.875 Z M 8.328125 -3.25 C 9.578125 -3.25 10.601562 -3.675781 11.40625 -4.53125 C 12.207031 -5.382812 12.609375 -6.484375 12.609375 -7.828125 C 12.609375 -9.171875 12.210938 -10.265625 11.421875 -11.109375 C 10.628906 -11.960938 9.597656 -12.390625 8.328125 -12.390625 C 7.066406 -12.390625 6.035156 -11.960938 5.234375 -11.109375 C 4.429688 -10.265625 4.019531 -9.171875 4 -7.828125 C 4.019531 -6.484375 4.425781 -5.382812 5.21875 -4.53125 C 6.007812 -3.675781 7.046875 -3.25 8.328125 -3.25 Z M 8.328125 -3.25 "/></g></g></g><g fill="#e497b1" fill-opacity="1"><g transform="translate(185.271011, 722.797496)"><g><path d="M 8.75 -14.984375 C 11.039062 -14.984375 12.90625 -14.289062 14.34375 -12.90625 C 15.78125 -11.519531 16.5 -9.695312 16.5 -7.4375 C 16.5 -5.195312 15.78125 -3.378906 14.34375 -1.984375 C 12.90625 -0.585938 11.039062 0.109375 8.75 0.109375 C 6.4375 0.109375 4.5625 -0.585938 3.125 -1.984375 C 1.695312 -3.378906 0.984375 -5.195312 0.984375 -7.4375 C 0.984375 -9.695312 1.695312 -11.519531 3.125 -12.90625 C 4.5625 -14.289062 6.4375 -14.984375 8.75 -14.984375 Z M 8.75 -12.21875 C 7.40625 -12.21875 6.304688 -11.769531 5.453125 -10.875 C 4.609375 -9.976562 4.1875 -8.820312 4.1875 -7.40625 C 4.1875 -5.976562 4.609375 -4.816406 5.453125 -3.921875 C 6.304688 -3.023438 7.40625 -2.578125 8.75 -2.578125 C 10.09375 -2.578125 11.179688 -3.023438 12.015625 -3.921875 C 12.859375 -4.816406 13.28125 -5.976562 13.28125 -7.40625 C 13.28125 -8.820312 12.851562 -9.976562 12 -10.875 C 11.15625 -11.769531 10.070312 -12.21875 8.75 -12.21875 Z M 8.75 -12.21875 "/></g></g></g><g fill="#e497b1" fill-opacity="1"><g transform="translate(202.746608, 722.797496)"><g><path d="M 11.078125 -14.984375 C 12.804688 -14.984375 14.160156 -14.472656 15.140625 -13.453125 C 16.117188 -12.441406 16.609375 -11.039062 16.609375 -9.25 L 16.609375 0 L 13.390625 0 L 13.390625 -8.359375 C 13.390625 -9.484375 13.070312 -10.363281 12.4375 -11 C 11.8125 -11.644531 10.9375 -11.96875 9.8125 -11.96875 C 8.625 -11.945312 7.648438 -11.5625 6.890625 -10.8125 C 6.140625 -10.070312 5.707031 -9.109375 5.59375 -7.921875 L 5.59375 0 L 2.375 0 L 2.375 -14.875 L 5.59375 -14.875 L 5.59375 -12.03125 C 6.601562 -14 8.429688 -14.984375 11.078125 -14.984375 Z M 11.078125 -14.984375 "/></g></g></g><g fill="#e497b1" fill-opacity="1"><g transform="translate(221.28472, 722.797496)"><g><path d="M 8.5 -14.984375 C 11.050781 -14.984375 12.898438 -14.210938 14.046875 -12.671875 C 15.203125 -11.140625 15.675781 -8.984375 15.46875 -6.203125 L 4.21875 -6.203125 C 4.476562 -5.046875 5.019531 -4.132812 5.84375 -3.46875 C 6.664062 -2.8125 7.664062 -2.484375 8.84375 -2.484375 C 10.519531 -2.484375 11.914062 -3.0625 13.03125 -4.21875 L 14.734375 -2.40625 C 13.210938 -0.726562 11.164062 0.109375 8.59375 0.109375 C 6.289062 0.109375 4.445312 -0.582031 3.0625 -1.96875 C 1.675781 -3.363281 0.984375 -5.175781 0.984375 -7.40625 C 0.984375 -9.644531 1.679688 -11.460938 3.078125 -12.859375 C 4.472656 -14.265625 6.28125 -14.972656 8.5 -14.984375 Z M 4.171875 -8.5625 L 12.671875 -8.5625 C 12.609375 -9.75 12.203125 -10.6875 11.453125 -11.375 C 10.710938 -12.070312 9.738281 -12.421875 8.53125 -12.421875 C 7.351562 -12.421875 6.378906 -12.070312 5.609375 -11.375 C 4.835938 -10.6875 4.359375 -9.75 4.171875 -8.5625 Z M 4.171875 -8.5625 "/></g></g></g><g fill="#e497b1" fill-opacity="1"><g transform="translate(237.725759, 722.797496)"><g><path d="M 11.078125 -14.984375 C 12.804688 -14.984375 14.160156 -14.472656 15.140625 -13.453125 C 16.117188 -12.441406 16.609375 -11.039062 16.609375 -9.25 L 16.609375 0 L 13.390625 0 L 13.390625 -8.359375 C 13.390625 -9.484375 13.070312 -10.363281 12.4375 -11 C 11.8125 -11.644531 10.9375 -11.96875 9.8125 -11.96875 C 8.625 -11.945312 7.648438 -11.5625 6.890625 -10.8125 C 6.140625 -10.070312 5.707031 -9.109375 5.59375 -7.921875 L 5.59375 0 L 2.375 0 L 2.375 -14.875 L 5.59375 -14.875 L 5.59375 -12.03125 C 6.601562 -14 8.429688 -14.984375 11.078125 -14.984375 Z M 11.078125 -14.984375 "/></g></g></g><g fill="#e497b1" fill-opacity="1"><g transform="translate(256.263872, 722.797496)"><g><path d="M 8.25 -6.828125 L 5.734375 -4.171875 L 5.734375 0 L 2.515625 0 L 2.515625 -20.75 L 5.734375 -20.75 L 5.734375 -8.21875 L 12.3125 -14.875 L 16 -14.875 L 10.484375 -9.125 L 16.421875 0 L 12.609375 0 Z M 8.25 -6.828125 "/></g></g></g><g fill="#e497b1" fill-opacity="1"><g transform="translate(272.900639, 722.797496)"><g><path d="M 5.734375 0 L 2.515625 0 L 2.515625 -20.75 L 5.734375 -20.75 Z M 5.734375 0 "/></g></g></g><g fill="#e497b1" fill-opacity="1"><g transform="translate(281.149117, 722.797496)"><g><path d="M 8.5 -14.984375 C 11.050781 -14.984375 12.898438 -14.210938 14.046875 -12.671875 C 15.203125 -11.140625 15.675781 -8.984375 15.46875 -6.203125 L 4.21875 -6.203125 C 4.476562 -5.046875 5.019531 -4.132812 5.84375 -3.46875 C 6.664062 -2.8125 7.664062 -2.484375 8.84375 -2.484375 C 10.519531 -2.484375 11.914062 -3.0625 13.03125 -4.21875 L 14.734375 -2.40625 C 13.210938 -0.726562 11.164062 0.109375 8.59375 0.109375 C 6.289062 0.109375 4.445312 -0.582031 3.0625 -1.96875 C 1.675781 -3.363281 0.984375 -5.175781 0.984375 -7.40625 C 0.984375 -9.644531 1.679688 -11.460938 3.078125 -12.859375 C 4.472656 -14.265625 6.28125 -14.972656 8.5 -14.984375 Z M 4.171875 -8.5625 L 12.671875 -8.5625 C 12.609375 -9.75 12.203125 -10.6875 11.453125 -11.375 C 10.710938 -12.070312 9.738281 -12.421875 8.53125 -12.421875 C 7.351562 -12.421875 6.378906 -12.070312 5.609375 -11.375 C 4.835938 -10.6875 4.359375 -9.75 4.171875 -8.5625 Z M 4.171875 -8.5625 "/></g></g></g><g fill="#e497b1" fill-opacity="1"><g transform="translate(297.590156, 722.797496)"><g><path d="M 8.75 -14.984375 C 11.039062 -14.984375 12.90625 -14.289062 14.34375 -12.90625 C 15.78125 -11.519531 16.5 -9.695312 16.5 -7.4375 C 16.5 -5.195312 15.78125 -3.378906 14.34375 -1.984375 C 12.90625 -0.585938 11.039062 0.109375 8.75 0.109375 C 6.4375 0.109375 4.5625 -0.585938 3.125 -1.984375 C 1.695312 -3.378906 0.984375 -5.195312 0.984375 -7.4375 C 0.984375 -9.695312 1.695312 -11.519531 3.125 -12.90625 C 4.5625 -14.289062 6.4375 -14.984375 8.75 -14.984375 Z M 8.75 -12.21875 C 7.40625 -12.21875 6.304688 -11.769531 5.453125 -10.875 C 4.609375 -9.976562 4.1875 -8.820312 4.1875 -7.40625 C 4.1875 -5.976562 4.609375 -4.816406 5.453125 -3.921875 C 6.304688 -3.023438 7.40625 -2.578125 8.75 -2.578125 C 10.09375 -2.578125 11.179688 -3.023438 12.015625 -3.921875 C 12.859375 -4.816406 13.28125 -5.976562 13.28125 -7.40625 C 13.28125 -8.820312 12.851562 -9.976562 12 -10.875 C 11.15625 -11.769531 10.070312 -12.21875 8.75 -12.21875 Z M 8.75 -12.21875 "/></g></g></g><g fill="#e497b1" fill-opacity="1"><g transform="translate(315.065753, 722.797496)"><g><path d="M 10.9375 -14.984375 C 13.039062 -14.984375 14.75 -14.28125 16.0625 -12.875 C 17.382812 -11.46875 18.046875 -9.640625 18.046875 -7.390625 C 18.046875 -5.148438 17.398438 -3.335938 16.109375 -1.953125 C 14.828125 -0.578125 13.117188 0.109375 10.984375 0.109375 C 8.597656 0.109375 6.847656 -0.785156 5.734375 -2.578125 L 5.734375 5.421875 L 2.515625 5.421875 L 2.515625 -14.875 L 5.734375 -14.875 L 5.734375 -12.3125 C 6.847656 -14.09375 8.582031 -14.984375 10.9375 -14.984375 Z M 7 -3.984375 C 7.851562 -3.078125 8.941406 -2.625 10.265625 -2.625 C 11.585938 -2.625 12.671875 -3.078125 13.515625 -3.984375 C 14.367188 -4.890625 14.796875 -6.0625 14.796875 -7.5 C 14.796875 -8.894531 14.367188 -10.046875 13.515625 -10.953125 C 12.671875 -11.859375 11.585938 -12.3125 10.265625 -12.3125 C 8.941406 -12.3125 7.851562 -11.859375 7 -10.953125 C 6.15625 -10.046875 5.734375 -8.894531 5.734375 -7.5 C 5.734375 -6.0625 6.15625 -4.890625 7 -3.984375 Z M 7 -3.984375 "/></g></g></g><g fill="#e497b1" fill-opacity="1"><g transform="translate(334.079207, 722.797496)"><g><path d="M 11.296875 0 L 11.296875 -1.8125 C 10.234375 -0.507812 8.59375 0.140625 6.375 0.140625 C 4.789062 0.140625 3.519531 -0.289062 2.5625 -1.15625 C 1.613281 -2.03125 1.140625 -3.132812 1.140625 -4.46875 C 1.140625 -5.832031 1.632812 -6.914062 2.625 -7.71875 C 3.613281 -8.519531 4.992188 -8.929688 6.765625 -8.953125 L 11.265625 -8.953125 L 11.265625 -9.390625 C 11.265625 -10.347656 10.960938 -11.085938 10.359375 -11.609375 C 9.753906 -12.128906 8.875 -12.390625 7.71875 -12.390625 C 6.28125 -12.390625 4.816406 -11.882812 3.328125 -10.875 L 2.015625 -13.125 C 3.148438 -13.789062 4.171875 -14.265625 5.078125 -14.546875 C 5.984375 -14.835938 7.097656 -14.984375 8.421875 -14.984375 C 10.316406 -14.984375 11.785156 -14.519531 12.828125 -13.59375 C 13.878906 -12.675781 14.414062 -11.398438 14.4375 -9.765625 L 14.453125 0 Z M 7.046875 -2.40625 C 8.179688 -2.40625 9.144531 -2.671875 9.9375 -3.203125 C 10.726562 -3.734375 11.171875 -4.410156 11.265625 -5.234375 L 11.265625 -6.59375 L 7.25 -6.59375 C 6.1875 -6.59375 5.40625 -6.4375 4.90625 -6.125 C 4.414062 -5.820312 4.171875 -5.316406 4.171875 -4.609375 C 4.171875 -3.941406 4.425781 -3.40625 4.9375 -3 C 5.445312 -2.601562 6.148438 -2.40625 7.046875 -2.40625 Z M 7.046875 -2.40625 "/></g></g></g><g fill="#e497b1" fill-opacity="1"><g transform="translate(350.46433, 722.797496)"><g><path d="M 9.984375 -3.40625 L 10.796875 -0.953125 C 9.566406 -0.222656 8.34375 0.140625 7.125 0.140625 C 5.914062 0.140625 4.921875 -0.222656 4.140625 -0.953125 C 3.359375 -1.679688 2.96875 -2.757812 2.96875 -4.1875 L 2.96875 -11.921875 L 0.859375 -11.921875 L 0.859375 -14.3125 L 2.96875 -14.3125 L 2.96875 -18.40625 L 6.15625 -18.40625 L 6.15625 -14.3125 L 10.546875 -14.3125 L 10.546875 -11.921875 L 6.15625 -11.921875 L 6.15625 -4.78125 C 6.15625 -4.03125 6.285156 -3.503906 6.546875 -3.203125 C 6.804688 -2.910156 7.207031 -2.765625 7.75 -2.765625 C 8.34375 -2.765625 9.085938 -2.976562 9.984375 -3.40625 Z M 9.984375 -3.40625 "/></g></g></g><g fill="#e497b1" fill-opacity="1"><g transform="translate(361.844437, 722.797496)"><g><path d="M 5.59375 -14.875 L 5.59375 -11.921875 C 6.613281 -13.960938 8.328125 -14.984375 10.734375 -14.984375 L 10.734375 -11.921875 C 9.265625 -11.992188 8.070312 -11.644531 7.15625 -10.875 C 6.25 -10.113281 5.726562 -9.082031 5.59375 -7.78125 L 5.59375 0 L 2.375 0 L 2.375 -14.875 Z M 5.59375 -14.875 "/></g></g></g><g fill="#e497b1" fill-opacity="1"><g transform="translate(372.861069, 722.797496)"><g><path d="M 11.296875 0 L 11.296875 -1.8125 C 10.234375 -0.507812 8.59375 0.140625 6.375 0.140625 C 4.789062 0.140625 3.519531 -0.289062 2.5625 -1.15625 C 1.613281 -2.03125 1.140625 -3.132812 1.140625 -4.46875 C 1.140625 -5.832031 1.632812 -6.914062 2.625 -7.71875 C 3.613281 -8.519531 4.992188 -8.929688 6.765625 -8.953125 L 11.265625 -8.953125 L 11.265625 -9.390625 C 11.265625 -10.347656 10.960938 -11.085938 10.359375 -11.609375 C 9.753906 -12.128906 8.875 -12.390625 7.71875 -12.390625 C 6.28125 -12.390625 4.816406 -11.882812 3.328125 -10.875 L 2.015625 -13.125 C 3.148438 -13.789062 4.171875 -14.265625 5.078125 -14.546875 C 5.984375 -14.835938 7.097656 -14.984375 8.421875 -14.984375 C 10.316406 -14.984375 11.785156 -14.519531 12.828125 -13.59375 C 13.878906 -12.675781 14.414062 -11.398438 14.4375 -9.765625 L 14.453125 0 Z M 7.046875 -2.40625 C 8.179688 -2.40625 9.144531 -2.671875 9.9375 -3.203125 C 10.726562 -3.734375 11.171875 -4.410156 11.265625 -5.234375 L 11.265625 -6.59375 L 7.25 -6.59375 C 6.1875 -6.59375 5.40625 -6.4375 4.90625 -6.125 C 4.414062 -5.820312 4.171875 -5.316406 4.171875 -4.609375 C 4.171875 -3.941406 4.425781 -3.40625 4.9375 -3 C 5.445312 -2.601562 6.148438 -2.40625 7.046875 -2.40625 Z M 7.046875 -2.40625 "/></g></g></g><g fill="#e497b1" fill-opacity="1"><g transform="translate(389.246192, 722.797496)"><g><path d="M 1.78125 -2.921875 C 2.125 -3.265625 2.546875 -3.4375 3.046875 -3.4375 C 3.546875 -3.4375 3.960938 -3.265625 4.296875 -2.921875 C 4.640625 -2.578125 4.8125 -2.144531 4.8125 -1.625 C 4.8125 -1.082031 4.640625 -0.632812 4.296875 -0.28125 C 3.960938 0.0703125 3.546875 0.25 3.046875 0.25 C 2.546875 0.25 2.125 0.0703125 1.78125 -0.28125 C 1.445312 -0.632812 1.28125 -1.082031 1.28125 -1.625 C 1.28125 -2.144531 1.445312 -2.578125 1.78125 -2.921875 Z M 1.78125 -2.921875 "/></g></g></g><g fill="#e497b1" fill-opacity="1"><g transform="translate(395.341681, 722.797496)"><g><path d="M 8.46875 -14.984375 C 11.15625 -14.984375 13.207031 -14.175781 14.625 -12.5625 L 12.859375 -10.484375 C 11.742188 -11.617188 10.328125 -12.179688 8.609375 -12.171875 C 7.328125 -12.171875 6.269531 -11.726562 5.4375 -10.84375 C 4.601562 -9.957031 4.1875 -8.8125 4.1875 -7.40625 C 4.1875 -6.007812 4.601562 -4.867188 5.4375 -3.984375 C 6.269531 -3.097656 7.328125 -2.65625 8.609375 -2.65625 C 10.515625 -2.65625 11.976562 -3.253906 13 -4.453125 L 14.796875 -2.65625 C 13.398438 -0.8125 11.289062 0.109375 8.46875 0.109375 C 6.25 0.109375 4.445312 -0.582031 3.0625 -1.96875 C 1.675781 -3.363281 0.984375 -5.175781 0.984375 -7.40625 C 0.984375 -9.664062 1.675781 -11.492188 3.0625 -12.890625 C 4.445312 -14.285156 6.25 -14.984375 8.46875 -14.984375 Z M 8.46875 -14.984375 "/></g></g></g><g fill="#e497b1" fill-opacity="1"><g transform="translate(411.111662, 722.797496)"><g><path d="M 8.75 -14.984375 C 11.039062 -14.984375 12.90625 -14.289062 14.34375 -12.90625 C 15.78125 -11.519531 16.5 -9.695312 16.5 -7.4375 C 16.5 -5.195312 15.78125 -3.378906 14.34375 -1.984375 C 12.90625 -0.585938 11.039062 0.109375 8.75 0.109375 C 6.4375 0.109375 4.5625 -0.585938 3.125 -1.984375 C 1.695312 -3.378906 0.984375 -5.195312 0.984375 -7.4375 C 0.984375 -9.695312 1.695312 -11.519531 3.125 -12.90625 C 4.5625 -14.289062 6.4375 -14.984375 8.75 -14.984375 Z M 8.75 -12.21875 C 7.40625 -12.21875 6.304688 -11.769531 5.453125 -10.875 C 4.609375 -9.976562 4.1875 -8.820312 4.1875 -7.40625 C 4.1875 -5.976562 4.609375 -4.816406 5.453125 -3.921875 C 6.304688 -3.023438 7.40625 -2.578125 8.75 -2.578125 C 10.09375 -2.578125 11.179688 -3.023438 12.015625 -3.921875 C 12.859375 -4.816406 13.28125 -5.976562 13.28125 -7.40625 C 13.28125 -8.820312 12.851562 -9.976562 12 -10.875 C 11.15625 -11.769531 10.070312 -12.21875 8.75 -12.21875 Z M 8.75 -12.21875 "/></g></g></g><g fill="#e497b1" fill-opacity="1"><g transform="translate(428.587247, 722.797496)"><g><path d="M 21.78125 -14.984375 C 23.476562 -14.984375 24.8125 -14.472656 25.78125 -13.453125 C 26.75 -12.429688 27.234375 -11.03125 27.234375 -9.25 L 27.234375 0 L 24.03125 0 L 24.03125 -8.359375 C 24.03125 -9.492188 23.71875 -10.382812 23.09375 -11.03125 C 22.46875 -11.675781 21.601562 -12 20.5 -12 C 19.25 -11.957031 18.253906 -11.503906 17.515625 -10.640625 C 16.785156 -9.773438 16.421875 -8.679688 16.421875 -7.359375 L 16.421875 0 L 13.203125 0 L 13.203125 -8.359375 C 13.203125 -9.492188 12.890625 -10.382812 12.265625 -11.03125 C 11.640625 -11.675781 10.785156 -12 9.703125 -12 C 8.429688 -11.957031 7.421875 -11.503906 6.671875 -10.640625 C 5.929688 -9.773438 5.5625 -8.679688 5.5625 -7.359375 L 5.5625 0 L 2.375 0 L 2.375 -14.875 L 5.5625 -14.875 L 5.5625 -12 C 6.550781 -13.988281 8.351562 -14.984375 10.96875 -14.984375 C 12.289062 -14.984375 13.394531 -14.671875 14.28125 -14.046875 C 15.164062 -13.429688 15.785156 -12.550781 16.140625 -11.40625 C 17.054688 -13.789062 18.9375 -14.984375 21.78125 -14.984375 Z M 21.78125 -14.984375 "/></g></g></g></svg>